M48
METRIC,TZ
T01C.4
;LEADER: 12 
;HEADER: 
;CODE  : ASCII 
;FILE  : P1_Munteanu_Alessia-1-2.drl for  ... layers TOP and BOTTOM
;DESIGN: P1_Munteanu_Alessia.brd
;T01 Holesize 1. = 0.400000 Tolerance = +0.000000/-0.000000 PLATED MM Quantity = 36
%
G90
T01
X440000Y2030000
X2170000Y1760000
X2570000Y1550000
X3214140Y2194140
X2180000Y3290000
X2840000Y3210000
X2800000Y2280000
X2590000Y2280000
X1680000Y2570000
X1040000Y1500000
X440000Y2870000
X180000Y2770000
X2400000Y3540000
X570000Y3580000
X1600000Y1840000
X1225000Y415000
X2482820Y2667180
X3000000Y3184360
X1250000Y3120000
X1250000Y3416080
X2690000Y3060000
X1240000Y2230000
X476640Y1566640
X2036060Y2263940
X1830000Y2304140
X675000Y2155000
X360000Y1200000
X1010000Y1850000
X1010000Y1626640
X2470000Y2480000
X2130000Y2070000
X2280000Y3650000
X1930000Y3300000
X1240000Y2800000
X740000Y1990000
X1718280Y3018280
M30
