G04 ================== begin FILE IDENTIFICATION RECORD ==================*
G04 Layout Name:  C:/Users/Sorin/OneDrive/Desktop/P1_Munteanu_Alessia.brd*
G04 Film Name:    SMTOP*
G04 File Format:  Gerber RS274X*
G04 File Origin:  Cadence Allegro 17.2-S025*
G04 Origin Date:  Sat Dec 14 06:28:08 2024*
G04 *
G04 Layer:  VIA CLASS/SOLDERMASK_TOP*
G04 Layer:  PIN/SOLDERMASK_TOP*
G04 Layer:  PACKAGE GEOMETRY/SOLDERMASK_TOP*
G04 Layer:  DRC ERROR CLASS/SOLDERMASK_TOP*
G04 Layer:  BOARD GEOMETRY/SOLDERMASK_TOP*
G04 *
G04 Offset:    (0.0000 0.0000)*
G04 Mirror:    No*
G04 Mode:      Positive*
G04 Rotation:  0*
G04 FullContactRelief:  No*
G04 UndefLineWidth:     0.0000*
G04 ================== end FILE IDENTIFICATION RECORD ====================*
%FSLAX25Y25*MOMM*%
%IR0*IPPOS*OFA0.00000B0.00000*MIA0B0*SFA1.00000B1.00000*%
%ADD18R,2.X1.3*%
%ADD16R,1.3X2.*%
%ADD11C,1.*%
%ADD15C,2.*%
%ADD13R,1.3X1.3*%
%ADD10R,1.27X1.27*%
%ADD17R,1.1684X1.524*%
%ADD12R,3.048X1.9304*%
%ADD14R,1.524X1.1684*%
%LPD*%
G75*
G54D10*
X270000Y720000D03*
Y506640D03*
X310000Y1780000D03*
Y1566640D03*
X550000Y1200000D03*
X590000Y2670000D03*
Y2456640D03*
X240000Y2030000D03*
Y2243360D03*
X740000Y290000D03*
Y503360D03*
X750000Y1750000D03*
Y1536640D03*
X1240000Y1770000D03*
Y1556640D03*
X763360Y1200000D03*
X1690000Y1660000D03*
X1903360D03*
X1960000Y2700000D03*
Y2913360D03*
X2050000Y3750000D03*
Y3536640D03*
X2330000Y306640D03*
X2700000Y970000D03*
X2330000Y520000D03*
X2210000Y2270000D03*
Y2483360D03*
X2690000Y2760000D03*
X2740000Y3540000D03*
Y3753360D03*
X3020000Y260000D03*
X2913360Y970000D03*
X3020000Y473360D03*
X2903360Y2760000D03*
G54D11*
X360000Y1200000D03*
X476640Y1566640D03*
X440000Y2030000D03*
X180000Y2770000D03*
X440000Y2870000D03*
X570000Y3580000D03*
X1225000Y415000D03*
X1010000Y1626640D03*
Y1850000D03*
X1040000Y1500000D03*
X740000Y1990000D03*
X675000Y2155000D03*
X1240000Y2230000D03*
Y2800000D03*
X1250000Y3416080D03*
Y3120000D03*
X1600000Y1840000D03*
X1830000Y2304140D03*
X2036060Y2263940D03*
X1680000Y2570000D03*
X1718280Y3018280D03*
X1930000Y3300000D03*
X2570000Y1550000D03*
X2170000Y1760000D03*
X2130000Y2070000D03*
X2470000Y2480000D03*
X2482820Y2667180D03*
X2590000Y2280000D03*
X2800000D03*
X2690000Y3060000D03*
X2840000Y3210000D03*
X2180000Y3290000D03*
X2280000Y3650000D03*
X2400000Y3540000D03*
X3214140Y2194140D03*
X3000000Y3184360D03*
G54D12*
X330000Y3130000D03*
Y3729440D03*
X3680000Y260560D03*
Y860000D03*
G54D13*
X1225000Y925000D03*
Y695000D03*
X2925000Y1655000D03*
Y1425000D03*
X3295000Y2765000D03*
X3525000D03*
G54D14*
X854260Y2204140D03*
X1060000Y2100000D03*
Y2308280D03*
X864260Y3464140D03*
X1070000Y3360000D03*
X874260Y2894140D03*
X1080000Y2790000D03*
Y2998280D03*
X1070000Y3568280D03*
X2130000Y1151720D03*
Y1360000D03*
X1474260Y2304140D03*
X1680000Y2200000D03*
Y2408280D03*
X1394260Y3464140D03*
X1600000Y3360000D03*
X1394260Y2914140D03*
X1600000Y2810000D03*
Y3018280D03*
Y3568280D03*
X2335740Y1255860D03*
X2284260Y3164140D03*
X2490000Y3060000D03*
Y3268280D03*
X3374260Y2194140D03*
X3580000Y2090000D03*
Y2298280D03*
G54D15*
X820000Y3200000D03*
X2070000Y670000D03*
G54D16*
X1775000Y810000D03*
X3475000Y1540000D03*
G54D17*
X2394140Y1965740D03*
X2290000Y1760000D03*
X2498280D03*
G54D18*
X3410000Y3315000D03*
M02*
