G04 ================== begin FILE IDENTIFICATION RECORD ==================*
G04 Layout Name:  C:/Users/Sorin/OneDrive/Desktop/P1_Munteanu_Alessia.brd*
G04 Film Name:    TOP*
G04 File Format:  Gerber RS274X*
G04 File Origin:  Cadence Allegro 17.2-S025*
G04 Origin Date:  Sat Dec 14 06:28:08 2024*
G04 *
G04 Layer:  ETCH/TOP*
G04 Layer:  PIN/TOP*
G04 Layer:  VIA CLASS/TOP*
G04 *
G04 Offset:    (0.0000 0.0000)*
G04 Mirror:    No*
G04 Mode:      Positive*
G04 Rotation:  0*
G04 FullContactRelief:  No*
G04 UndefLineWidth:     0.0000*
G04 ================== end FILE IDENTIFICATION RECORD ====================*
%FSLAX25Y25*MOMM*%
%IR0*IPPOS*OFA0.00000B0.00000*MIA0B0*SFA1.00000B1.00000*%
%ADD11C,.8*%
%ADD17R,.9144X1.27*%
%ADD14R,1.27X.9144*%
%ADD18R,2.X1.3*%
%ADD16R,1.3X2.*%
%ADD15C,1.*%
%ADD13R,1.3X1.3*%
%ADD10R,1.27X1.27*%
%ADD12R,3.048X1.9304*%
%ADD19C,.4*%
%ADD20C,.45*%
G75*
%LPD*%
G75*
G54D10*
X270000Y720000D03*
Y506640D03*
X310000Y1780000D03*
Y1566640D03*
X550000Y1200000D03*
X590000Y2670000D03*
Y2456640D03*
X240000Y2030000D03*
Y2243360D03*
X740000Y290000D03*
Y503360D03*
X750000Y1750000D03*
Y1536640D03*
X1240000Y1770000D03*
Y1556640D03*
X763360Y1200000D03*
X1690000Y1660000D03*
X1903360D03*
X1960000Y2700000D03*
Y2913360D03*
X2050000Y3750000D03*
Y3536640D03*
X2330000Y306640D03*
X2700000Y970000D03*
X2330000Y520000D03*
X2210000Y2270000D03*
Y2483360D03*
X2690000Y2760000D03*
X2740000Y3540000D03*
Y3753360D03*
X3020000Y260000D03*
X2913360Y970000D03*
X3020000Y473360D03*
X2903360Y2760000D03*
G54D20*
G01X750000Y1750000D02*
X565000D01*
X490000Y1825000D01*
G01D02*
X445000Y1780000D01*
X310000D01*
G01X490000Y1825000D02*
Y1942110D01*
X537500Y1989610D01*
Y2070390D01*
X490000Y2117890D01*
Y2180000D01*
X390000Y2280000D01*
Y2430000D01*
X330000Y2490000D01*
Y3130000D01*
G01X570000Y3580000D02*
X590000Y3560000D01*
Y3175000D01*
X545000Y3130000D01*
X330000D01*
G01X740000Y290000D02*
X920000D01*
X970000Y340000D01*
G01D02*
Y620000D01*
X1045000Y695000D01*
X1225000D01*
G01X2330000Y306640D02*
X1003360D01*
X970000Y340000D01*
G01X1225000Y695000D02*
Y415000D01*
G01X1240000Y1770000D02*
X1080000D01*
X1060000Y1750000D01*
X750000D01*
G01X1240000Y1770000D02*
X1450000D01*
X1520000Y1840000D01*
X1600000D01*
G01X3020000Y260000D02*
X2810000D01*
X2763360Y306640D01*
X2330000D01*
G01X2913360Y1110000D02*
X2873360Y1150000D01*
X2750000D01*
X2705000Y1195000D01*
Y1380000D01*
X2750000Y1425000D01*
X2925000D01*
G01X2400000Y3540000D02*
X2740000D01*
G01X3020000Y260000D02*
X3491840D01*
X3492400Y260560D01*
X3680000D01*
G01Y860000D02*
Y1050000D01*
X3620000Y1110000D01*
X2913360D01*
G01D02*
Y970000D01*
G01X3475000Y1540000D02*
X3280000D01*
X3165000Y1425000D01*
X2925000D01*
G54D11*
X360000Y1200000D03*
X476640Y1566640D03*
X440000Y2030000D03*
X180000Y2770000D03*
X440000Y2870000D03*
X570000Y3580000D03*
X1225000Y415000D03*
X1010000Y1626640D03*
Y1850000D03*
X1040000Y1500000D03*
X740000Y1990000D03*
X675000Y2155000D03*
X1240000Y2230000D03*
Y2800000D03*
X1250000Y3416080D03*
Y3120000D03*
X1600000Y1840000D03*
X1830000Y2304140D03*
X2036060Y2263940D03*
X1680000Y2570000D03*
X1718280Y3018280D03*
X1930000Y3300000D03*
X2570000Y1550000D03*
X2170000Y1760000D03*
X2130000Y2070000D03*
X2470000Y2480000D03*
X2482820Y2667180D03*
X2590000Y2280000D03*
X2800000D03*
X2690000Y3060000D03*
X2840000Y3210000D03*
X2180000Y3290000D03*
X2280000Y3650000D03*
X2400000Y3540000D03*
X3214140Y2194140D03*
X3000000Y3184360D03*
G54D12*
X330000Y3130000D03*
Y3729440D03*
X3680000Y260560D03*
Y860000D03*
G54D13*
X1225000Y925000D03*
Y695000D03*
X2925000Y1655000D03*
Y1425000D03*
X3295000Y2765000D03*
X3525000D03*
G54D14*
X854260Y2204140D03*
X1060000Y2100000D03*
Y2308280D03*
X864260Y3464140D03*
X1070000Y3360000D03*
X874260Y2894140D03*
X1080000Y2790000D03*
Y2998280D03*
X1070000Y3568280D03*
X2130000Y1151720D03*
Y1360000D03*
X1474260Y2304140D03*
X1680000Y2200000D03*
Y2408280D03*
X1394260Y3464140D03*
X1600000Y3360000D03*
X1394260Y2914140D03*
X1600000Y2810000D03*
Y3018280D03*
Y3568280D03*
X2335740Y1255860D03*
X2284260Y3164140D03*
X2490000Y3060000D03*
Y3268280D03*
X3374260Y2194140D03*
X3580000Y2090000D03*
Y2298280D03*
G54D15*
X820000Y3200000D03*
X2070000Y670000D03*
G54D16*
X1775000Y810000D03*
X3475000Y1540000D03*
G54D17*
X2394140Y1965740D03*
X2290000Y1760000D03*
X2498280D03*
G54D18*
X3410000Y3315000D03*
G54D19*
G01X270000Y506640D02*
X640520D01*
X643800Y503360D01*
X740000D01*
G01X550000Y1200000D02*
Y1020000D01*
X490000Y960000D01*
X340000D01*
X270000Y890000D01*
Y720000D01*
G01X550000Y1200000D02*
X360000D01*
G01X310000Y1566640D02*
X476640D01*
G01X240000Y2243360D02*
Y2710000D01*
X180000Y2770000D01*
G01X440000Y2030000D02*
X240000D01*
G01X590000Y2670000D02*
Y2840000D01*
X560000Y2870000D01*
X440000D01*
G01X1030560Y3729440D02*
X330000D01*
G01X2130000Y1360000D02*
X1980000D01*
X1870000Y1250000D01*
X1000000D01*
X960000Y1210000D01*
Y1080000D01*
X740000Y860000D01*
Y503360D01*
G01X1775000Y810000D02*
X1440000D01*
X1325000Y925000D01*
X1225000D01*
G01X2130000Y2070000D02*
Y1854360D01*
X2075000Y1799360D01*
Y1720640D01*
X2130000Y1665640D01*
Y1550000D01*
X2090000Y1510000D01*
X1980000D01*
X1823360Y1353360D01*
X803360D01*
X763360Y1313360D01*
Y1200000D01*
G01X1010000Y1626640D02*
X920000Y1536640D01*
X750000D01*
G01X1010000Y1850000D02*
Y1971580D01*
X1060000Y2021580D01*
Y2100000D01*
G01X1240000Y1556640D02*
X1096640D01*
X1040000Y1500000D01*
G01X854260Y2204140D02*
Y2104260D01*
X740000Y1990000D01*
G01X1060000Y2100000D02*
X1290000D01*
X1330000Y2060000D01*
Y2020000D01*
X1370000Y1980000D01*
X1670000D01*
X1690000Y2000000D01*
G01X1474260Y2304140D02*
X1300220D01*
X1233360Y2371000D01*
Y2416640D01*
X1193360Y2456640D01*
X590000D01*
G01X675000Y2155000D02*
X623590Y2206410D01*
Y2236410D01*
X590000Y2270000D01*
Y2456640D01*
G01X1240000Y2230000D02*
X1161720Y2308280D01*
X1060000D01*
G01X590000Y2670000D02*
X1038420D01*
X1080000Y2711580D01*
Y2790000D01*
G01Y2998280D02*
Y2910720D01*
X1100000Y2890720D01*
X1199280D01*
X1240000Y2850000D01*
Y2800000D01*
G01X1070000Y3360000D02*
Y3370000D01*
X975860Y3464140D01*
X864260D01*
G01D02*
X714140D01*
X670000Y3420000D01*
Y2930000D01*
X705860Y2894140D01*
X874260D01*
G01X1070000Y3360000D02*
Y3240000D01*
X1095000Y3215000D01*
X1545000D01*
X1600000Y3270000D01*
Y3360000D01*
G01X1394260Y3464140D02*
X1298060D01*
X1250000Y3416080D01*
G01X1394260Y2914140D02*
X1376480D01*
X1250000Y3040620D01*
Y3120000D01*
G01X1070000Y3568280D02*
Y3690000D01*
X1030560Y3729440D01*
G01D02*
X1031120Y3730000D01*
X1570000D01*
G01X2130000Y1151720D02*
Y850000D01*
X2090000Y810000D01*
X1775000D01*
G01X1690000Y2000000D02*
Y1884360D01*
X1695000Y1879360D01*
Y1800640D01*
X1690000Y1795640D01*
Y1660000D01*
G01X1903360D02*
Y1793360D01*
X1955000Y1845000D01*
Y2210640D01*
X1941060Y2224580D01*
Y2303300D01*
X1955000Y2317240D01*
Y2385000D01*
X1960000Y2390000D01*
Y2700000D01*
G01X1690000Y2000000D02*
Y2111580D01*
X1680000Y2121580D01*
Y2200000D01*
G01X1474260Y2304140D02*
X1830000D01*
G01X2210000Y2270000D02*
X2042120D01*
X2036060Y2263940D01*
G01X1680000Y2570000D02*
Y2408280D01*
G01X1600000Y3018280D02*
X1718280D01*
G01X1600000Y2810000D02*
X1740000D01*
X1780000Y2850000D01*
Y2945640D01*
X1813280Y2978920D01*
Y3057640D01*
X1780000Y3090920D01*
Y3150000D01*
X1930000Y3300000D01*
G01X2100000Y3164140D02*
X2000000D01*
X1960000Y3124140D01*
Y2913360D01*
G01X2050000Y3536640D02*
Y3290000D01*
G01D02*
Y3214140D01*
X2100000Y3164140D01*
G01X2180000Y3290000D02*
X2050000D01*
G01X2260000Y3753360D02*
X2203680D01*
X2200320Y3750000D01*
X2050000D01*
G01X1570000Y3730000D02*
X1600000Y3700000D01*
Y3568280D01*
G01X1570000Y3730000D02*
X1740000D01*
X1780000Y3690000D01*
Y3583280D01*
X1826640Y3536640D01*
X2050000D01*
G01X3020000Y473360D02*
X2756640D01*
X2700000Y530000D01*
Y970000D01*
G01X2529290Y1255860D02*
X2569290Y1215860D01*
Y1159290D01*
X2330000Y920000D01*
Y520000D01*
G01X2498280Y1760000D02*
X2650000D01*
X2680000Y1730000D01*
Y1705000D01*
X2730000Y1655000D01*
X2925000D01*
G01X2335740Y1255860D02*
X2529290D01*
G01D02*
X2543800Y1270370D01*
Y1410000D01*
X2403800Y1550000D01*
G01D02*
X2290000Y1663800D01*
Y1760000D01*
G01X2570000Y1550000D02*
X2403800D01*
G01X2290000Y1760000D02*
X2170000D01*
G01X2690000Y2760000D02*
Y2540000D01*
G01D02*
Y2070000D01*
X2760000Y2000000D01*
X3540000D01*
X3580000Y2040000D01*
Y2090000D01*
G01X2470000Y2480000D02*
X2630000D01*
X2690000Y2540000D01*
G01X2210000Y2483360D02*
Y2463360D01*
G01X2482820Y2667180D02*
X2267180D01*
X2210000Y2610000D01*
Y2483360D01*
G01X2800000Y2280000D02*
X2890000Y2370000D01*
Y2563280D01*
X2903360Y2576640D01*
G01X2590000Y2280000D02*
X2550000D01*
X2394140Y2124140D01*
Y1965740D01*
G01X2490000Y3060000D02*
X2690000D01*
G01X2490000Y3268280D02*
X2763920D01*
X2800640Y3305000D01*
X2879360D01*
X3000000Y3184360D01*
G01X2903360Y2760000D02*
Y3146640D01*
X2840000Y3210000D01*
G01X2284260Y3164140D02*
X2100000D01*
G01X2740000Y3753360D02*
X2260000D01*
G01X2280000Y3650000D02*
Y3733360D01*
X2260000Y3753360D01*
G01X3295000Y2765000D02*
Y2555000D01*
X3240000Y2500000D01*
X2980000D01*
X2903360Y2576640D01*
G01D02*
Y2760000D01*
G01X3580000Y2298280D02*
Y2490000D01*
X3525000Y2545000D01*
Y2765000D01*
G01X3374260Y2194140D02*
X3214140D01*
G01X3525000Y2765000D02*
Y2925000D01*
X3410000Y3040000D01*
Y3315000D01*
M02*
